<svg xmlns="http://www.w3.org/2000/svg" viewBox="0 0 171.28 28.3"><defs><style>.cls-1{fill:#d12f56;stroke-width:0.25px;}.cls-1,.cls-2{stroke:#1d1d1b;stroke-miterlimit:10;}.cls-2{fill:#aa173a;stroke-width:0.5px;}</style></defs><g id="Capa_2" data-name="Capa 2"><g id="Capa_1-2" data-name="Capa 1"><path class="cls-1" d="M171.15,14.06v.09c0,7.68-1.27,13.9-2.85,13.9H3.14C1.69,28.05.49,22.94.28,16.27V12C.49,5.36,1.69.25,3.14.25H168.3C169.87.25,171.15,6.42,171.15,14.06Z"/><path class="cls-2" d="M6,14.15c0,7.68-1.29,13.9-2.88,13.9S.49,22.94.28,16.27c0-.69,0-1.4,0-2.12s0-1.43,0-2.12C.49,5.36,1.69.25,3.14.25S6,6.47,6,14.15Z"/></g></g></svg>