<?xml version="1.0" encoding="UTF-8"?><svg xmlns="http://www.w3.org/2000/svg" viewBox="0 0 314.58 315"><defs><style>.d{fill:#6d1c2f;}</style></defs><g id="a"/><g id="b"><g id="c"><path class="d" d="M130.15,0h53.85c1.77,1.38,3.86,.63,5.79,.81,9.66,.89,18.61,4.34,27.46,7.9,12.97,5.23,25.23,11.86,36.29,20.49,23.04,17.96,40.6,40.19,51.59,67.36,4,9.9,7.42,20.06,8.81,30.71,.74,5.67,.66,11.42,.57,17.15-.03,1.72-1,2.46-2.46,2.79-1.22,.27-2.48,.2-3.73,.2-23.8,0-47.6,.02-71.4,0-6.45,0-7.14-.36-9.15-6.44-4.77-14.42-12.8-26.68-24.33-36.49-6.88-5.85-14.95-9.81-23.45-12.8-10.47-3.68-21.36-5.21-32.31-3.85-12.71,1.58-24.52,6.14-35.09,13.59-14.49,10.21-23.85,24.04-28.81,40.94-1.02,3.49-2.75,4.95-6.84,5.02-8.35,.13-16.7,.04-25.05,.05-15.45,0-30.9,.02-46.36,0-1.98,0-4.05,.24-5.52-1.57v-17.95c1.3-1.79,.63-3.87,.82-5.82,.83-8.39,3.77-16.23,6.81-23.93,5.63-14.3,13.22-27.62,22.72-39.74,10.53-13.42,22.87-24.96,37.1-34.42,13.57-9.02,28.12-15.87,43.82-20.41,5.42-1.57,10.75-2.94,16.41-2.84,.89,.02,1.74-.16,2.45-.73v-.02Z"/><path class="d" d="M0,185.97v-11.22c1.16-1.39,2.74-1.56,4.41-1.56,24.05-.02,48.1-.05,72.15,.03,4.44,0,5.87,1.46,7.04,6.13,3.93,15.7,12.08,28.75,24.57,39.08,10.1,8.35,21.68,13.4,34.47,15.93,11.17,2.21,22.15,1.17,33.06-1.63,9.4-2.42,17.72-6.83,25.56-12.59,10.89-8.01,18.01-18.71,23.74-30.6,1.47-3.05,2.23-6.33,3.08-9.56,1.5-5.73,2.62-6.77,8.45-6.78,23.93-.03,47.85-.03,71.78,0,6.09,0,6.48,.67,6.19,6.72-.56,11.44-3.93,22.17-7.62,32.87-5.17,14.99-13.21,28.43-22.6,41.01-7.38,9.88-16.15,18.56-25.59,26.56-17.19,14.57-36.96,24.27-58.32,30.83-8.06,2.47-16.43,3.8-24.93,3.8-12.21,0-24.42,.03-36.64,0-13.73-.05-26.68-3.58-39.4-8.52-13.91-5.4-26.85-12.44-38.78-21.36-10.41-7.79-19.56-16.87-27.92-26.85-12.47-14.89-21.59-31.6-27.8-49.89-2.22-6.53-4.67-13.15-4.2-20.3,.05-.76-.25-1.47-.71-2.09H0Z"/><circle class="d" cx="157.29" cy="163.37" r="60.35"/></g></g></svg>